<svg width="830" height="245" viewBox="-10 -10 830 245" xmlns="http://www.w3.org/2000/svg" class="schemascii"><g class="wire"><polyline points="255,45 240,45 240,15 90,15 90,30" fill="transparent" stroke-width="2" stroke="black"></polyline><polyline points="525,15 240,15" fill="transparent" stroke-width="2" stroke="black"></polyline><polyline points="180,30 180,15" fill="transparent" stroke-width="2" stroke="black"></polyline><polyline points="135,30 135,15" fill="transparent" stroke-width="2" stroke="black"></polyline></g><g class="wire"><polyline points="750,45 750,15 570,15" fill="transparent" stroke-width="2" stroke="black"></polyline></g><g class="wire"><polyline points="675,105 675,45 360,45" fill="transparent" stroke-width="2" stroke="black"></polyline><polyline points="570,90 585,90 585,45" fill="transparent" stroke-width="2" stroke="black"></polyline><polyline points="390,60 390,45" fill="transparent" stroke-width="2" stroke="black"></polyline></g><g class="wire"><polyline points="90,135 90,60" fill="transparent" stroke-width="2" stroke="black"></polyline><polyline points="30,90 90,90" fill="transparent" stroke-width="2" stroke="black"></polyline></g><g class="wire"><polyline points="135,135 135,60" fill="transparent" stroke-width="2" stroke="black"></polyline><polyline points="30,120 165,120" fill="transparent" stroke-width="2" stroke="black"></polyline><circle cx="135" cy="120" r="4" stroke="none" fill="black"></circle></g><g class="wire"><polyline points="465,105 450,105" fill="transparent" stroke-width="2" stroke="black"></polyline></g><g class="wire"><polyline points="255,135 255,120 330,120 330,180 600,180 600,105 570,105" fill="transparent" stroke-width="2" stroke="black"></polyline><polyline points="210,120 255,120" fill="transparent" stroke-width="2" stroke="black"></polyline></g><g class="wire"><polyline points="570,120 630,120 630,60 720,60" fill="transparent" stroke-width="2" stroke="black"></polyline></g><g class="wire"><polyline points="465,120 450,120" fill="transparent" stroke-width="2" stroke="black"></polyline></g><g class="wire"><polyline points="435,150 435,135 465,135" fill="transparent" stroke-width="2" stroke="black"></polyline></g><g class="wire"><polyline points="645,135 570,135" fill="transparent" stroke-width="2" stroke="black"></polyline></g><g class="component U"><rect x="270" y="30" width="75" height="30" stroke-width="2" stroke="black" fill="transparent"></rect><polyline points="360,45 345,45" fill="transparent" stroke-width="2" stroke="black"></polyline><polyline points="315,75 315,60" fill="transparent" stroke-width="2" stroke="black"></polyline><polyline points="255,45 270,45" fill="transparent" stroke-width="2" stroke="black"></polyline><text x="307.5" y="45" text-anchor="middle" font-size="15" fill="black"><tspan class="part-num">7805</tspan></text><text x="255" y="45" text-anchor="middle" font-size="15" fill="black" class="pin-label">VIN</text><text x="315" y="75" text-anchor="start" font-size="15" fill="black" class="pin-label"></text><text x="360" y="45" text-anchor="middle" font-size="15" fill="black" class="pin-label">5V</text></g><g class="component U"><rect x="480" y="75" width="75" height="75" stroke-width="2" stroke="black" fill="transparent"></rect><polyline points="570,90 555,90" fill="transparent" stroke-width="2" stroke="black"></polyline><polyline points="570,105 555,105" fill="transparent" stroke-width="2" stroke="black"></polyline><polyline points="570,120 555,120" fill="transparent" stroke-width="2" stroke="black"></polyline><polyline points="570,135 555,135" fill="transparent" stroke-width="2" stroke="black"></polyline><polyline points="465,90 480,90" fill="transparent" stroke-width="2" stroke="black"></polyline><polyline points="465,105 480,105" fill="transparent" stroke-width="2" stroke="black"></polyline><polyline points="465,120 480,120" fill="transparent" stroke-width="2" stroke="black"></polyline><polyline points="465,135 480,135" fill="transparent" stroke-width="2" stroke="black"></polyline><text x="517.5" y="112.5" text-anchor="middle" font-size="15" fill="black"><tspan class="part-num">ATtiny85</tspan></text><text x="465" y="90" text-anchor="middle" font-size="15" fill="black" class="pin-label"></text><text x="465" y="105" text-anchor="middle" font-size="15" fill="black" class="pin-label"></text><text x="465" y="120" text-anchor="middle" font-size="15" fill="black" class="pin-label">PB4</text><text x="465" y="135" text-anchor="middle" font-size="15" fill="black" class="pin-label">GND</text><text x="570" y="135" text-anchor="middle" font-size="15" fill="black" class="pin-label">PB0</text><text x="570" y="120" text-anchor="middle" font-size="15" fill="black" class="pin-label">PB1</text><text x="570" y="105" text-anchor="middle" font-size="15" fill="black" class="pin-label">PB2</text><text x="570" y="90" text-anchor="middle" font-size="15" fill="black" class="pin-label">VCC</text></g><g class="component U"><rect x="660" y="120" width="45" height="30" stroke-width="2" stroke="black" fill="transparent"></rect><polyline points="675,105 675,120" fill="transparent" stroke-width="2" stroke="black"></polyline><polyline points="675,165 675,150" fill="transparent" stroke-width="2" stroke="black"></polyline><polyline points="645,135 660,135" fill="transparent" stroke-width="2" stroke="black"></polyline><text x="682.5" y="135" text-anchor="middle" font-size="15" fill="black"><tspan class="part-num">sensor</tspan></text></g><g class="component L"><path d="M570.0 15.0a1 1 0 01 -15 0.0a1 1 0 01 -15 0.0a1 1 0 01 -15 0" stroke="black" fill="transparent" stroke-width="2"></path><text x="547.5" y="7.5" text-anchor="middle" font-size="15" fill="black"><tspan class="cmp-value">motor</tspan></text></g><g class="component D"><text x="97.5" y="45" text-anchor="start" font-size="15" fill="black"><tspan class="part-num"></tspan></text><polyline points="94.5,40.5 85.5,40.5" fill="transparent" stroke-width="2" stroke="black"></polyline><polyline points="90,60 90,40.5" fill="transparent" stroke-width="2" stroke="black"></polyline><polyline points="90,30 90,49.5" fill="transparent" stroke-width="2" stroke="black"></polyline><polygon points="90,40.5 85.5,49.5 94.5,49.5" fill="black" class="filled"></polygon></g><g class="component D"><text x="142.5" y="45" text-anchor="start" font-size="15" fill="black"><tspan class="part-num"></tspan></text><polyline points="139.5,40.5 130.5,40.5" fill="transparent" stroke-width="2" stroke="black"></polyline><polyline points="135,60 135,40.5" fill="transparent" stroke-width="2" stroke="black"></polyline><polyline points="135,30 135,49.5" fill="transparent" stroke-width="2" stroke="black"></polyline><polygon points="135,40.5 130.5,49.5 139.5,49.5" fill="black" class="filled"></polygon></g><g class="component C"><polyline points="186,48.75 174,48.75" fill="transparent" stroke-width="2" stroke="black"></polyline><polyline points="186,41.25 174,41.25" fill="transparent" stroke-width="2" stroke="black"></polyline><polyline points="180,60 180,48.75" fill="transparent" stroke-width="2" stroke="black"></polyline><polyline points="180,30 180,41.25" fill="transparent" stroke-width="2" stroke="black"></polyline><g class="plus"><polyline points="183.07,33.75 186.82,33.75" fill="transparent" stroke-width="2" stroke="black"></polyline><polyline points="184.95,35.62 184.95,31.88" fill="transparent" stroke-width="2" stroke="black"></polyline></g><text x="187.5" y="45" text-anchor="start" font-size="15" fill="black"><tspan class="cmp-value">470 µF</tspan></text></g><g class="component Q"><text x="757.5" y="60" text-anchor="start" font-size="15" fill="black"><tspan class="part-num">2N7000</tspan></text><polyline points="735,60 720,60" fill="transparent" stroke-width="2" stroke="black"></polyline><polyline points="735,67.5 735,52.5" fill="transparent" stroke-width="2" stroke="black"></polyline><polyline points="739.5,75 739.5,45" fill="transparent" stroke-width="2" stroke="black"></polyline><polyline points="750,45 750,48 739.5,48" fill="transparent" stroke-width="2" stroke="black"></polyline><polyline points="750,75 750,72 743.93,76.41" fill="transparent" stroke-width="2" stroke="black"></polyline><polyline points="739.5,72 750,72 743.93,67.59" fill="transparent" stroke-width="2" stroke="black"></polyline></g><g class="component G"><polyline points="182.4,82.5 177.6,82.5" fill="transparent" stroke-width="2" stroke="black"></polyline><polyline points="184.95,78.75 175.05,78.75" fill="transparent" stroke-width="2" stroke="black"></polyline><polyline points="187.5,75 172.5,75" fill="transparent" stroke-width="2" stroke="black"></polyline><polyline points="180,60 180,75" fill="transparent" stroke-width="2" stroke="black"></polyline></g><g class="component C"><polyline points="396,78.75 384,78.75" fill="transparent" stroke-width="2" stroke="black"></polyline><polyline points="396,71.25 384,71.25" fill="transparent" stroke-width="2" stroke="black"></polyline><polyline points="390,90 390,78.75" fill="transparent" stroke-width="2" stroke="black"></polyline><polyline points="390,60 390,71.25" fill="transparent" stroke-width="2" stroke="black"></polyline><g class="plus"><polyline points="393.07,63.75 396.82,63.75" fill="transparent" stroke-width="2" stroke="black"></polyline><polyline points="394.95,65.62 394.95,61.88" fill="transparent" stroke-width="2" stroke="black"></polyline></g><text x="397.5" y="75" text-anchor="start" font-size="15" fill="black"><tspan class="cmp-value">22 µF</tspan></text></g><g class="component J"><polyline points="15,90 30,90 23.93,94.41" fill="transparent" stroke-width="2" stroke="black"></polyline><polyline points="30,90 23.93,85.59" fill="transparent" stroke-width="2" stroke="black"></polyline><text x="7.5" y="90" text-anchor="start" font-size="15" fill="black"><tspan class="part-num">6VAC</tspan></text></g><g class="component G"><polyline points="317.4,97.5 312.6,97.5" fill="transparent" stroke-width="2" stroke="black"></polyline><polyline points="319.95,93.75 310.05,93.75" fill="transparent" stroke-width="2" stroke="black"></polyline><polyline points="322.5,90 307.5,90" fill="transparent" stroke-width="2" stroke="black"></polyline><polyline points="315,75 315,90" fill="transparent" stroke-width="2" stroke="black"></polyline></g><g class="component G"><polyline points="752.4,97.5 747.6,97.5" fill="transparent" stroke-width="2" stroke="black"></polyline><polyline points="754.95,93.75 745.05,93.75" fill="transparent" stroke-width="2" stroke="black"></polyline><polyline points="757.5,90 742.5,90" fill="transparent" stroke-width="2" stroke="black"></polyline><polyline points="750,75 750,90" fill="transparent" stroke-width="2" stroke="black"></polyline></g><g class="component G"><polyline points="392.4,112.5 387.6,112.5" fill="transparent" stroke-width="2" stroke="black"></polyline><polyline points="394.95,108.75 385.05,108.75" fill="transparent" stroke-width="2" stroke="black"></polyline><polyline points="397.5,105 382.5,105" fill="transparent" stroke-width="2" stroke="black"></polyline><polyline points="390,90 390,105" fill="transparent" stroke-width="2" stroke="black"></polyline></g><g class="component J"><polyline points="15,120 30,120 23.93,124.41" fill="transparent" stroke-width="2" stroke="black"></polyline><polyline points="30,120 23.93,115.59" fill="transparent" stroke-width="2" stroke="black"></polyline><text x="7.5" y="120" text-anchor="start" font-size="15" fill="black"><tspan class="part-num">6VAC</tspan></text></g><g class="component R"><polyline points="210,120 206.25,116.25 202.5,123.75 198.75,116.25 195,123.75 191.25,116.25 187.5,123.75 183.75,116.25 180,123.75 176.25,116.25 172.5,123.75 168.75,116.25 165,120" fill="transparent" stroke-width="2" stroke="black"></polyline><text x="187.5" y="112.5" text-anchor="middle" font-size="15" fill="black"><tspan class="cmp-value">270 Ω</tspan></text></g><g class="component D"><text x="97.5" y="150" text-anchor="start" font-size="15" fill="black"><tspan class="part-num"></tspan></text><polyline points="94.5,145.5 85.5,145.5" fill="transparent" stroke-width="2" stroke="black"></polyline><polyline points="90,165 90,145.5" fill="transparent" stroke-width="2" stroke="black"></polyline><polyline points="90,135 90,154.5" fill="transparent" stroke-width="2" stroke="black"></polyline><polygon points="90,145.5 85.5,154.5 94.5,154.5" fill="black" class="filled"></polygon></g><g class="component D"><text x="142.5" y="150" text-anchor="start" font-size="15" fill="black"><tspan class="part-num"></tspan></text><polyline points="139.5,145.5 130.5,145.5" fill="transparent" stroke-width="2" stroke="black"></polyline><polyline points="135,165 135,145.5" fill="transparent" stroke-width="2" stroke="black"></polyline><polyline points="135,135 135,154.5" fill="transparent" stroke-width="2" stroke="black"></polyline><polygon points="135,145.5 130.5,154.5 139.5,154.5" fill="black" class="filled"></polygon></g><g class="component C"><polyline points="261,153.75 249,153.75" fill="transparent" stroke-width="2" stroke="black"></polyline><polyline points="261,146.25 249,146.25" fill="transparent" stroke-width="2" stroke="black"></polyline><polyline points="255,165 255,153.75" fill="transparent" stroke-width="2" stroke="black"></polyline><polyline points="255,135 255,146.25" fill="transparent" stroke-width="2" stroke="black"></polyline><text x="262.5" y="150" text-anchor="start" font-size="15" fill="black"><tspan class="cmp-value">4700 pF</tspan></text></g><g class="component G"><polyline points="437.4,172.5 432.6,172.5" fill="transparent" stroke-width="2" stroke="black"></polyline><polyline points="439.95,168.75 430.05,168.75" fill="transparent" stroke-width="2" stroke="black"></polyline><polyline points="442.5,165 427.5,165" fill="transparent" stroke-width="2" stroke="black"></polyline><polyline points="435,150 435,165" fill="transparent" stroke-width="2" stroke="black"></polyline></g><g class="component G"><polyline points="92.4,187.5 87.6,187.5" fill="transparent" stroke-width="2" stroke="black"></polyline><polyline points="94.95,183.75 85.05,183.75" fill="transparent" stroke-width="2" stroke="black"></polyline><polyline points="97.5,180 82.5,180" fill="transparent" stroke-width="2" stroke="black"></polyline><polyline points="90,165 90,180" fill="transparent" stroke-width="2" stroke="black"></polyline></g><g class="component G"><polyline points="137.4,187.5 132.6,187.5" fill="transparent" stroke-width="2" stroke="black"></polyline><polyline points="139.95,183.75 130.05,183.75" fill="transparent" stroke-width="2" stroke="black"></polyline><polyline points="142.5,180 127.5,180" fill="transparent" stroke-width="2" stroke="black"></polyline><polyline points="135,165 135,180" fill="transparent" stroke-width="2" stroke="black"></polyline></g><g class="component G"><polyline points="257.4,187.5 252.6,187.5" fill="transparent" stroke-width="2" stroke="black"></polyline><polyline points="259.95,183.75 250.05,183.75" fill="transparent" stroke-width="2" stroke="black"></polyline><polyline points="262.5,180 247.5,180" fill="transparent" stroke-width="2" stroke="black"></polyline><polyline points="255,165 255,180" fill="transparent" stroke-width="2" stroke="black"></polyline></g><g class="component G"><polyline points="677.4,187.5 672.6,187.5" fill="transparent" stroke-width="2" stroke="black"></polyline><polyline points="679.95,183.75 670.05,183.75" fill="transparent" stroke-width="2" stroke="black"></polyline><polyline points="682.5,180 667.5,180" fill="transparent" stroke-width="2" stroke="black"></polyline><polyline points="675,165 675,180" fill="transparent" stroke-width="2" stroke="black"></polyline></g></svg>