<svg width="1170" height="255" viewBox="-30 -30 1170 255" xmlns="http://www.w3.org/2000/svg" class="schemascii"><g class="wire"><line x1="225" y1="0" x2="30" y2="0" stroke-width="2" stroke="black"></line><line x1="255" y1="0" x2="225" y2="0" stroke-width="2" stroke="black"></line><line x1="225" y1="60" x2="225" y2="0" stroke-width="2" stroke="black"></line><line x1="210" y1="60" x2="225" y2="60" stroke-width="2" stroke="black"></line></g><g class="wire"><line x1="345" y1="0" x2="300" y2="0" stroke-width="2" stroke="black"></line><line x1="405" y1="0" x2="345" y2="0" stroke-width="2" stroke="black"></line><line x1="345" y1="60" x2="345" y2="0" stroke-width="2" stroke="black"></line></g><g class="wire"><line x1="480" y1="0" x2="450" y2="0" stroke-width="2" stroke="black"></line><line x1="540" y1="0" x2="480" y2="0" stroke-width="2" stroke="black"></line><line x1="480" y1="75" x2="480" y2="0" stroke-width="2" stroke="black"></line><line x1="450" y1="75" x2="480" y2="75" stroke-width="2" stroke="black"></line><line x1="480" y1="90" x2="480" y2="75" stroke-width="2" stroke="black"></line></g><g class="wire"><line x1="105" y1="75" x2="60" y2="75" stroke-width="2" stroke="black"></line><line x1="60" y1="135" x2="60" y2="75" stroke-width="2" stroke="black"></line><line x1="390" y1="135" x2="60" y2="135" stroke-width="2" stroke="black"></line><line x1="405" y1="135" x2="390" y2="135" stroke-width="2" stroke="black"></line><line x1="390" y1="75" x2="390" y2="135" stroke-width="2" stroke="black"></line><line x1="405" y1="75" x2="390" y2="75" stroke-width="2" stroke="black"></line></g><g class="wire"><line x1="225" y1="75" x2="210" y2="75" stroke-width="2" stroke="black"></line></g><g class="wire"><line x1="315" y1="75" x2="300" y2="75" stroke-width="2" stroke="black"></line><line x1="300" y1="90" x2="300" y2="75" stroke-width="2" stroke="black"></line><line x1="210" y1="90" x2="300" y2="90" stroke-width="2" stroke="black"></line></g><g class="wire"><line x1="105" y1="105" x2="30" y2="105" stroke-width="2" stroke="black"></line><line x1="30" y1="150" x2="30" y2="105" stroke-width="2" stroke="black"></line></g><g class="wire"><line x1="225" y1="105" x2="210" y2="105" stroke-width="2" stroke="black"></line></g><g class="wire"><line x1="345" y1="150" x2="345" y2="105" stroke-width="2" stroke="black"></line><line x1="345" y1="90" x2="345" y2="105" stroke-width="2" stroke="black"></line></g><g class="wire"><line x1="480" y1="135" x2="480" y2="120" stroke-width="2" stroke="black"></line><line x1="450" y1="135" x2="480" y2="135" stroke-width="2" stroke="black"></line><line x1="480" y1="150" x2="480" y2="135" stroke-width="2" stroke="black"></line></g><g class="component U"><rect x="120" y="45" width="75" height="75" stroke-width="2" stroke="black" fill="transparent"></rect><polyline points="210,60 195,60" stroke="black" stroke-width="2"></polyline><polyline points="210,75 195,75" stroke="black" stroke-width="2"></polyline><polyline points="210,90 195,90" stroke="black" stroke-width="2"></polyline><polyline points="210,105 195,105" stroke="black" stroke-width="2"></polyline><polyline points="105,60 120,60" stroke="black" stroke-width="2"></polyline><polyline points="105,75 120,75" stroke="black" stroke-width="2"></polyline><polyline points="105,90 120,90" stroke="black" stroke-width="2"></polyline><polyline points="105,105 120,105" stroke="black" stroke-width="2"></polyline><text x="157.5" y="82.5" text-anchor="middle" font-size="15" fill="black"><tspan class="part-num">ATtiny85</tspan></text><text x="157.5" y="67.5" text-anchor="middle" font-size="15" fill="black"><tspan class="cmp-id">U1</tspan></text><text x="105" y="60" text-anchor="middle" font-size="15" fill="black" class="pin-label"></text><text x="105" y="75" text-anchor="middle" font-size="15" fill="black" class="pin-label">PB3</text><text x="105" y="90" text-anchor="middle" font-size="15" fill="black" class="pin-label"></text><text x="105" y="105" text-anchor="middle" font-size="15" fill="black" class="pin-label">GND</text><text x="210" y="105" text-anchor="middle" font-size="15" fill="black" class="pin-label">PB0</text><text x="210" y="90" text-anchor="middle" font-size="15" fill="black" class="pin-label">PB1</text><text x="210" y="75" text-anchor="middle" font-size="15" fill="black" class="pin-label">PB2</text><text x="210" y="60" text-anchor="middle" font-size="15" fill="black" class="pin-label">VCC</text></g><g class="component J"><polyline points="30,0 15,1.84e-15" stroke="black" stroke-width="2"></polyline><polyline points="30,0 23.93,-4.41" stroke="black" stroke-width="2"></polyline><polyline points="30,0 23.93,4.41" stroke="black" stroke-width="2"></polyline><text x="7.5" y="0.0" text-anchor="start" font-size="15" fill="black"><tspan class="cmp-id">J1</tspan> <tspan class="part-num">Vin</tspan></text></g><g class="component L"><path d="M300 0a1 1 0 01 -15 0a1 1 0 01 -15 0a1 1 0 01 -15 0" stroke="black" fill="transparent" stroke-width="2"></path><text x="277.5" y="-7.5" text-anchor="middle" font-size="15" fill="black"><tspan class="cmp-id">L1</tspan> <tspan class="cmp-value"></tspan></text></g><g class="component D"><text x="427.5" y="-7.5" text-anchor="middle" font-size="15" fill="black"><tspan class="cmp-id">D1</tspan> <tspan class="part-num"></tspan></text><polyline points="450,0 423,5.51e-16" stroke="black" stroke-width="2"></polyline><polyline points="405,0 432,-5.51e-16" stroke="black" stroke-width="2"></polyline><polyline points="432,4.5 432,-4.5" stroke="black" stroke-width="2"></polyline><polygon points="432,-5.51e-16 423,-4.5 423,4.5" fill="black"></polygon></g><g class="component J"><polyline points="555,0 540,0" stroke="black" stroke-width="2"></polyline><polyline points="555,0 548.93,-4.41" stroke="black" stroke-width="2"></polyline><polyline points="555,0 548.93,4.41" stroke="black" stroke-width="2"></polyline><text x="562.5" y="0" text-anchor="start" font-size="15" fill="black"><tspan class="cmp-id">J2</tspan> <tspan class="part-num">Vout</tspan></text></g><g class="component J"><polyline points="240,75 225,75" stroke="black" stroke-width="2"></polyline><polyline points="240,75 233.93,70.59" stroke="black" stroke-width="2"></polyline><polyline points="240,75 233.93,79.41" stroke="black" stroke-width="2"></polyline><text x="247.5" y="75" text-anchor="start" font-size="15" fill="black"><tspan class="cmp-id">J4</tspan> <tspan class="part-num">SCL</tspan></text></g><g class="component Q"><text x="352.5" y="75" text-anchor="start" font-size="15" fill="black"><tspan class="cmp-id">Q1</tspan> <tspan class="part-num"></tspan></text><polyline points="345,90 345,87" stroke="black" stroke-width="2"></polyline><polyline points="345,60 345,63" stroke="black" stroke-width="2"></polyline><polyline points="345,87 334.5,87" stroke="black" stroke-width="2"></polyline><polyline points="345,87 338.93,82.59" stroke="black" stroke-width="2"></polyline><polyline points="345,87 338.93,91.41" stroke="black" stroke-width="2"></polyline><polyline points="345,63 334.5,63" stroke="black" stroke-width="2"></polyline><polyline points="334.5,90 334.5,60" stroke="black" stroke-width="2"></polyline><polyline points="330,82.5 330,67.5" stroke="black" stroke-width="2"></polyline><polyline points="330,75 315,75" stroke="black" stroke-width="2"></polyline></g><g class="component R"><polyline points="450,75 446.25,71.25 442.5,78.75 438.75,71.25 435,78.75 431.25,71.25 427.5,78.75 423.75,71.25 420,78.75 416.25,71.25 412.5,78.75 408.75,71.25 405,75" fill="transparent" stroke-width="2" stroke="black"></polyline><text x="427.5" y="67.5" text-anchor="middle" font-size="15" fill="black"><tspan class="cmp-id">R1</tspan> <tspan class="cmp-value"></tspan></text></g><g class="component J"><polyline points="240,105 225,105" stroke="black" stroke-width="2"></polyline><polyline points="240,105 233.93,100.59" stroke="black" stroke-width="2"></polyline><polyline points="240,105 233.93,109.41" stroke="black" stroke-width="2"></polyline><text x="247.5" y="105" text-anchor="start" font-size="15" fill="black"><tspan class="cmp-id">J3</tspan> <tspan class="part-num">SDA</tspan></text></g><g class="component C"><polyline points="480,90 480,101.25" stroke="black" stroke-width="2"></polyline><polyline points="480,120 480,108.75" stroke="black" stroke-width="2"></polyline><polyline points="486,101.25 474,101.25" stroke="black" stroke-width="2"></polyline><polyline points="486,108.75 474,108.75" stroke="black" stroke-width="2"></polyline><g class="plus"><polyline points="484.95,95.62 484.95,91.88" stroke="black" stroke-width="2"></polyline><polyline points="483.07,93.75 486.82,93.75" stroke="black" stroke-width="2"></polyline></g><text x="487.5" y="105" text-anchor="start" font-size="15" fill="black"><tspan class="cmp-id">C1</tspan> <tspan class="cmp-value"></tspan></text></g><g class="component R"><polyline points="450,135 446.25,131.25 442.5,138.75 438.75,131.25 435,138.75 431.25,131.25 427.5,138.75 423.75,131.25 420,138.75 416.25,131.25 412.5,138.75 408.75,131.25 405,135" fill="transparent" stroke-width="2" stroke="black"></polyline><text x="427.5" y="127.5" text-anchor="middle" font-size="15" fill="black"><tspan class="cmp-id">R2</tspan> <tspan class="cmp-value"></tspan></text></g><g class="component G"><polyline points="30,150 30,165" stroke="black" stroke-width="2"></polyline><polyline points="37.5,165 22.5,165" stroke="black" stroke-width="2"></polyline><polyline points="37.5,165 33.75,172.5" stroke="black" stroke-width="2"></polyline><polyline points="30,165 26.25,172.5" stroke="black" stroke-width="2"></polyline><polyline points="22.5,165 18.75,172.5" stroke="black" stroke-width="2"></polyline></g><g class="component G"><polyline points="345,150 345,165" stroke="black" stroke-width="2"></polyline><polyline points="352.5,165 337.5,165" stroke="black" stroke-width="2"></polyline><polyline points="352.5,165 348.75,172.5" stroke="black" stroke-width="2"></polyline><polyline points="345,165 341.25,172.5" stroke="black" stroke-width="2"></polyline><polyline points="337.5,165 333.75,172.5" stroke="black" stroke-width="2"></polyline></g><g class="component G"><polyline points="480,150 480,165" stroke="black" stroke-width="2"></polyline><polyline points="487.5,165 472.5,165" stroke="black" stroke-width="2"></polyline><polyline points="487.5,165 483.75,172.5" stroke="black" stroke-width="2"></polyline><polyline points="480,165 476.25,172.5" stroke="black" stroke-width="2"></polyline><polyline points="472.5,165 468.75,172.5" stroke="black" stroke-width="2"></polyline></g></svg>